<?xml version="1.0" standalone="no"?>
<!DOCTYPE svg PUBLIC "-//W3C//DTD SVG 20010904//EN"
 "http://www.w3.org/TR/2001/REC-SVG-20010904/DTD/svg10.dtd">
<svg version="1.0" xmlns="http://www.w3.org/2000/svg"
 width="500.000000pt" height="500.000000pt" viewBox="0 0 500.000000 500.000000"
 preserveAspectRatio="xMidYMid meet">
<metadata>
Created by potrace 1.16, written by Peter Selinger 2001-2019
</metadata>
<g transform="translate(0.000000,500.000000) scale(0.100000,-0.100000)"
fill="#000000" stroke="none">
<path d="M2355 4534 c-213 -17 -455 -81 -640 -170 -356 -171 -643 -452 -820
-804 -123 -244 -178 -489 -177 -785 0 -142 4 -190 26 -296 94 -461 353 -844
749 -1109 216 -145 508 -255 755 -286 562 -69 1117 111 1493 486 243 243 426
567 489 866 40 195 45 488 11 671 -68 357 -250 690 -516 941 -327 310 -722
476 -1160 486 -88 2 -182 2 -210 0z m445 -188 c256 -47 559 -201 765 -387 260
-236 423 -514 497 -846 29 -132 32 -461 5 -593 -84 -403 -330 -774 -657 -990
-249 -164 -477 -253 -730 -285 -475 -61 -948 101 -1321 452 -238 224 -401 547
-454 898 -51 337 41 746 232 1038 220 334 517 560 884 670 99 30 155 42 294
61 67 10 404 -3 485 -18z"/>
<path d="M2676 3716 c-9 -21 -16 -41 -16 -43 0 -18 -66 -82 -103 -101 -61 -30
-111 -28 -185 9 l-61 30 -23 -20 c-12 -12 -16 -21 -9 -21 7 0 10 -4 7 -8 -11
-17 46 -83 97 -112 92 -53 208 -31 291 55 36 36 66 113 66 164 -1 24 -29 76
-31 55 0 -5 -4 0 -8 11 -7 18 -10 15 -25 -19z"/>
<path d="M2814 2993 c-17 -77 -28 -111 -45 -146 -23 -45 -108 -132 -138 -142
-27 -8 -27 -16 5 -46 60 -55 96 -140 114 -268 6 -41 13 -77 15 -79 3 -3 40 31
82 74 43 43 114 106 157 139 44 33 82 66 84 73 3 9 -23 12 -107 12 -127 0
-131 2 -131 91 l0 51 63 -6 c34 -3 166 -8 293 -12 218 -6 233 -5 276 14 86 38
148 123 173 240 l7 32 -421 0 -421 0 -6 -27z"/>
<path d="M1351 3001 c-10 -6 -11 -20 -6 -52 15 -90 64 -152 150 -190 46 -21
63 -22 240 -21 105 1 238 5 298 8 l107 7 0 -47 c0 -61 -31 -96 -87 -96 -60 -1
-135 -9 -142 -15 -7 -8 90 -91 102 -87 5 1 6 -1 3 -6 -3 -5 35 -49 85 -97 63
-62 93 -85 100 -78 6 6 17 44 24 85 15 90 64 191 116 239 37 36 38 37 19 54
-11 10 -24 14 -32 9 -7 -4 -10 -4 -6 1 4 4 -5 20 -20 35 -58 55 -104 133 -121
208 l-13 52 -401 0 c-221 0 -408 -4 -416 -9z"/>
<path d="M2385 3001 c-11 -5 -25 -6 -32 -4 -6 2 -14 -5 -18 -16 -8 -27 47
-112 115 -175 l53 -50 26 30 c104 119 115 136 135 202 l7 22 -133 -1 c-73 0
-142 -4 -153 -8z"/>
<path d="M2437 2532 c-94 -102 -102 -166 -33 -286 l43 -77 64 66 c35 36 67 74
71 83 13 33 8 133 -9 165 -22 44 -66 97 -79 97 -6 0 -32 -22 -57 -48z"/>
<path d="M3776 2237 c-9 -36 -113 -163 -205 -249 -76 -72 -98 -85 -319 -196
-131 -66 -263 -137 -294 -158 -61 -43 -139 -111 -154 -135 -9 -15 -96 -69
-111 -69 -4 0 -1 5 7 10 13 8 13 11 1 19 -10 7 -12 22 -8 62 l7 54 -14 -40
c-17 -53 -36 -131 -36 -151 0 -19 53 -14 186 17 163 37 279 92 494 235 151
100 326 268 313 301 -3 9 0 11 10 8 15 -7 67 70 67 99 0 9 3 16 8 16 13 0 52
66 52 88 0 13 6 22 16 22 9 0 14 6 11 13 -2 6 -11 11 -20 11 -10 -1 -13 4 -10
13 4 10 9 11 16 4 6 -6 15 -11 21 -11 6 0 5 5 -2 12 -7 7 -12 20 -12 30 0 26
-17 22 -24 -5z"/>
<path d="M1218 2159 c-19 -20 -25 -54 -8 -44 5 3 8 0 5 -7 -7 -17 88 -162 157
-242 74 -86 178 -175 288 -248 207 -135 367 -203 554 -233 123 -19 137 -19
129 1 -4 10 -8 12 -12 5 -11 -17 -94 46 -189 142 -64 66 -192 153 -291 199
-284 130 -384 189 -511 303 -27 24 -75 88 -87 117 -14 32 -13 32 -35 7z"/>
<path d="M2605 2138 c-48 -26 -162 -174 -184 -237 -19 -56 -13 -174 13 -279
14 -53 30 -125 37 -160 6 -34 16 -65 20 -68 5 -3 9 -3 9 1 0 3 9 40 21 83 40
145 71 313 84 457 4 39 13 95 21 126 22 90 19 100 -21 77z"/>
<path d="M73 853 c-10 -3 -13 -72 -13 -293 0 -282 0 -289 20 -295 12 -4 39 -4
60 0 l40 7 0 113 c0 94 3 114 16 119 9 3 63 6 120 6 l104 0 0 -109 c0 -60 3
-116 6 -125 6 -17 58 -21 102 -10 l22 6 -2 292 -3 291 -49 3 c-27 2 -52 0 -57
-5 -5 -5 -10 -58 -13 -118 l-4 -110 -118 0 -119 0 -3 110 c-2 72 -7 112 -15
117 -13 8 -75 9 -94 1z"/>
<path d="M930 845 c-66 -22 -138 -82 -174 -145 -27 -49 -31 -64 -31 -135 0
-67 4 -89 28 -137 55 -112 168 -174 300 -166 117 8 198 62 250 167 76 155 20
323 -135 402 -55 28 -173 35 -238 14z m196 -135 c101 -63 112 -220 20 -294
-35 -28 -44 -31 -111 -31 -59 0 -79 4 -102 21 -33 25 -70 86 -79 132 -14 75
41 170 111 192 44 14 121 4 161 -20z"/>
<path d="M1515 848 c-3 -7 -4 -141 -3 -298 l3 -285 31 -3 c16 -2 42 2 57 7 26
10 27 13 27 90 l0 79 83 4 c103 4 168 34 211 94 68 99 31 240 -77 296 -36 19
-62 23 -184 26 -115 3 -144 2 -148 -10z m278 -136 c53 -55 41 -127 -23 -148
-19 -7 -59 -9 -87 -7 l-53 6 0 88 0 89 68 0 c62 0 71 -3 95 -28z"/>
<path d="M2110 559 l0 -301 31 6 c17 3 107 6 200 6 l169 0 0 60 0 60 -140 0
-140 0 0 24 c0 13 -3 38 -6 55 l-6 31 131 0 131 0 0 55 0 55 -125 0 -125 0 0
65 0 65 140 0 141 0 -3 58 -3 57 -197 3 -198 2 0 -301z"/>
<path d="M2850 847 c-19 -8 -46 -19 -60 -25 -30 -11 -92 -77 -114 -119 -41
-80 -34 -220 14 -299 31 -50 96 -101 151 -119 100 -33 199 -15 287 51 l34 26
-33 34 c-39 40 -47 41 -85 12 -23 -19 -41 -23 -95 -23 -57 0 -71 4 -102 28
-49 37 -65 63 -76 122 -11 59 7 131 42 163 27 26 98 52 141 52 17 0 55 -12 84
-27 l53 -27 34 37 c34 37 34 38 15 57 -59 59 -210 88 -290 57z"/>
<path d="M3481 847 c-18 -9 -49 -73 -138 -286 -63 -150 -112 -280 -109 -288 5
-11 16 -13 49 -8 47 8 58 18 84 81 l18 44 118 1 c64 1 124 2 133 3 11 1 23
-18 38 -57 24 -66 37 -77 86 -77 68 0 68 3 -10 186 -40 93 -93 219 -119 279
-25 61 -50 116 -54 123 -10 15 -65 15 -96 -1z m83 -245 c20 -50 36 -97 36
-102 0 -6 -34 -10 -85 -9 -47 1 -85 3 -85 5 0 3 15 44 34 92 19 48 37 96 41
106 8 27 17 14 59 -92z"/>
<path d="M3968 854 c-5 -4 -8 -140 -8 -301 l0 -294 53 3 52 3 3 88 3 87 44 1
c25 1 50 2 57 3 7 1 37 -39 68 -89 l56 -90 67 -3 c37 -2 67 1 67 6 0 6 -19 36
-43 68 -23 33 -53 76 -65 96 l-23 36 40 33 c103 82 90 253 -24 324 -47 29 -52
30 -194 33 -80 2 -149 0 -153 -4z m271 -129 c40 -20 56 -64 41 -110 -16 -49
-48 -63 -137 -57 l-73 4 0 82 c0 46 3 86 7 89 12 13 134 7 162 -8z"/>
<path d="M4593 853 c-10 -3 -13 -72 -13 -297 l0 -292 198 1 197 0 3 56 3 56
-53 6 c-29 4 -95 7 -146 7 l-93 0 3 57 3 57 119 -3 c130 -3 136 -1 136 56 0
62 1 61 -136 55 l-124 -5 0 66 0 66 143 3 142 3 3 58 3 57 -188 -1 c-103 0
-194 -3 -200 -6z"/>
</g>
</svg>
